# xmcd CD database file
#
# Track frame offsets:
#	150
#	17137
#	29707
#	49000
#	64637
#	70945
#	82152
#	96077
#	109807
#	126077
#	140365
#	154422
#
# Disc length: 2112 seconds
#
# Revision: 0
# Processed by: cddbd v1.4PL0 Copyright (c) Steve Scherf et al.
# Submitted via: CDex 1.50
#
DISCID=a9083e0c
DTITLE=Dizzy Gillespie - Dizzy Gillespie and The Double Six O Paris
DYEAR=1963
DGENRE=Jazz
TTITLE0=Emanon
TTITLE1=Anthropology
TTITLE2=Tin Tin Deo
TTITLE3=One Bass Bit
TTITLE4=Two Bass Bit
TTITLE5=Groovin' High
TTITLE6=Oo-Shoo-Be-Doo-Be
TTITLE7=Hot House
TTITLE8=Con Alma
TTITLE9=Blue'N'Boogie
TTITLE10=The Champ
TTITLE11=Ow!
EXTD=YEAR: 1963
EXTT0=
EXTT1=
EXTT2=
EXTT3=
EXTT4=
EXTT5=
EXTT6=
EXTT7=
EXTT8=
EXTT9=
EXTT10=
EXTT11=
PLAYORDER=
